<svg preserveAspectRatio="none" overflow="visible" style="display: block;" width="27" height="27" viewBox="0 0 27 27" fill="none" xmlns="http://www.w3.org/2000/svg">
<g id="bed-alt 1">
<path id="Vector" d="M20.5 2.5H6.5C3.743 2.5 1.5 4.743 1.5 7.5V21.5C1.5 22.053 1.948 22.5 2.5 22.5C3.052 22.5 3.5 22.053 3.5 21.5V19.5H23.5V21.5C23.5 22.053 23.947 22.5 24.5 22.5C25.053 22.5 25.5 22.053 25.5 21.5V7.5C25.5 4.743 23.257 2.5 20.5 2.5ZM6.5 4.5H20.5C22.154 4.5 23.5 5.846 23.5 7.5V13.5H21.5C21.5 11.294 19.706 9.5 17.5 9.5H16.5C15.306 9.5 14.234 10.026 13.5 10.857C12.766 10.025 11.694 9.5 10.5 9.5H9.5C7.294 9.5 5.5 11.294 5.5 13.5H3.5V7.5C3.5 5.846 4.846 4.5 6.5 4.5ZM14.5 13.5C14.5 12.397 15.397 11.5 16.5 11.5H17.5C18.603 11.5 19.5 12.397 19.5 13.5H14.5ZM7.5 13.5C7.5 12.397 8.397 11.5 9.5 11.5H10.5C11.603 11.5 12.5 12.397 12.5 13.5H7.5ZM3.5 17.5V15.5H23.5V17.5H3.5Z" fill="var(--fill-0, #F7EADB)"/>
</g>
</svg>
